<svg xmlns="http://www.w3.org/2000/svg" viewBox="0 0 204 33.64"><defs><style>.cls-1{fill:#375bd2;}</style></defs><g id="Layer_2" data-name="Layer 2"><g id="Layer_1-2" data-name="Layer 1"><path class="cls-1" d="M4.15,10.63H0V22.19H1.26V17.3H4.15A3.26,3.26,0,0,0,7.65,14,3.28,3.28,0,0,0,4.15,10.63Zm-.3,5.58H1.26V11.73H3.85a2.25,2.25,0,1,1,0,4.48Z"/><path class="cls-1" d="M12.49,14.22a3.9,3.9,0,0,0-4,4.1,4,4,0,1,0,7.9,0A3.9,3.9,0,0,0,12.49,14.22Zm0,7.19a2.78,2.78,0,0,1-2.72-3.09,2.74,2.74,0,1,1,5.44,0A2.78,2.78,0,0,1,12.49,21.41Z"/><polygon class="cls-1" points="28.72 14.47 26.8 21.01 24.55 14.47 23.19 14.47 20.93 21.01 18.98 14.47 17.66 14.47 20.19 22.19 21.58 22.19 23.82 15.63 26.11 22.19 27.47 22.19 29.98 14.47 28.72 14.47"/><path class="cls-1" d="M37.48,19.85a2.39,2.39,0,0,1-2.39,1.58,2.6,2.6,0,0,1-2.64-2.65v-.2h6.12a2.85,2.85,0,0,0,0-.31c0-2.5-1.42-4-3.7-4a3.85,3.85,0,0,0-3.68,4.09,3.83,3.83,0,0,0,3.88,4.13,3.47,3.47,0,0,0,3.39-2.25Zm-5-2.36a2.38,2.38,0,0,1,2.39-2.26,2.24,2.24,0,0,1,2.42,2.26v.2H32.49Z"/><path class="cls-1" d="M44.61,15.64l.49,0v-1.3l-.33,0a2.32,2.32,0,0,0-2.25,1.44l-.36.77V14.47H41v7.72h1.2V18.32C42.19,16.1,43.5,15.64,44.61,15.64Z"/><path class="cls-1" d="M52.7,19.85a2.39,2.39,0,0,1-2.39,1.58,2.59,2.59,0,0,1-2.63-2.65v-.2H53.8c0-.09,0-.2,0-.31,0-2.5-1.42-4-3.7-4a3.85,3.85,0,0,0-3.68,4.09,3.83,3.83,0,0,0,3.88,4.13,3.48,3.48,0,0,0,3.4-2.25Zm-5-2.36a2.39,2.39,0,0,1,2.4-2.26,2.24,2.24,0,0,1,2.42,2.26v.2H47.72Z"/><path class="cls-1" d="M61.89,20.34v.95a6.58,6.58,0,0,0,.06.9H63.1A12.75,12.75,0,0,1,63,20.88V10.38H61.86v6l-.37-.9a2.26,2.26,0,0,0-2.3-1.25,3.79,3.79,0,0,0-3.65,4.06c0,2.41,1.5,4.1,3.65,4.1a2.53,2.53,0,0,0,2.34-1.34ZM59.34,21.4c-1.56,0-2.57-1.22-2.57-3.09s1.07-3,2.59-3,2.52,1.18,2.52,3S60.83,21.4,59.34,21.4Z"/><path class="cls-1" d="M74.33,22.41c2.14,0,3.58-1.66,3.58-4.12s-1.39-4-3.53-4a2.78,2.78,0,0,0-2.51,1.28l-.36.68V10.38H70.33V22.19h1.18V20.48l.36.63A2.69,2.69,0,0,0,74.33,22.41Zm-2.84-4.12c0-1.82,1.05-3,2.6-3s2.59,1.19,2.59,3-1,3.09-2.59,3.09S71.49,20.11,71.49,18.29Z"/><polygon class="cls-1" points="85.5 14.47 82.96 20.35 80.3 14.47 78.91 14.47 82.31 21.49 80.38 25.57 81.68 25.57 86.78 14.47 85.5 14.47"/><path class="cls-1" d="M132.07,16.61a6,6,0,0,1,5.74-6.17h.24a5.18,5.18,0,0,1,5.35,3.85l-1.89.64a3.32,3.32,0,0,0-3.46-2.6,4,4,0,0,0-3.92,4.32,3.88,3.88,0,0,0,3.94,4.25,3.57,3.57,0,0,0,3.54-2.61l1.84.6a5.31,5.31,0,0,1-5.4,3.93,5.87,5.87,0,0,1-6-5.76C132.06,16.91,132.06,16.76,132.07,16.61Z"/><path class="cls-1" d="M147.11,22.54h-2V10.41h2v4.75a2.91,2.91,0,0,1,2.31-1c2,0,3,1.44,3,3.24v5.16h-1.89V17.71a1.57,1.57,0,0,0-1.32-1.8,1.45,1.45,0,0,0-.36,0,1.7,1.7,0,0,0-1.69,1.7v.14Z"/><path class="cls-1" d="M156.75,17.86l2.09-.32c.47-.06.6-.3.6-.59,0-.68-.46-1.24-1.54-1.24a1.55,1.55,0,0,0-1.67,1.41s0,.05,0,.07l-1.77-.4a3.2,3.2,0,0,1,3.43-2.67c2.52,0,3.47,1.43,3.47,3.09v4.05a8.17,8.17,0,0,0,.1,1.31h-1.81a5.15,5.15,0,0,1-.08-1,2.86,2.86,0,0,1-2.51,1.29,2.56,2.56,0,0,1-2.76-2.35.41.41,0,0,1,0-.11A2.52,2.52,0,0,1,156.75,17.86Zm2.69,1.32v-.37l-2.13.31a1.13,1.13,0,0,0-1.09,1.11,1.08,1.08,0,0,0,1.1,1.06h.09a1.87,1.87,0,0,0,2-1.66A2.26,2.26,0,0,0,159.44,19.18Z"/><path class="cls-1" d="M164.65,10.24a1.27,1.27,0,0,1,1.29,1.25v0a1.27,1.27,0,1,1-1.29-1.27Zm-1,12.34v-8.2h1.93v8.16Z"/><path class="cls-1" d="M170.08,22.54h-1.94V14.38H170v1.09a2.71,2.71,0,0,1,2.41-1.33c2,0,3,1.44,3,3.24v5.16h-2V17.71c0-1-.45-1.81-1.67-1.81a1.72,1.72,0,0,0-1.71,1.73c0,.06,0,.13,0,.2Z"/><path class="cls-1" d="M177.77,22.54V10.41h1.94V22.54Z"/><path class="cls-1" d="M183.18,10.24a1.27,1.27,0,1,1-1.26,1.25A1.27,1.27,0,0,1,183.18,10.24Zm-1,12.34v-8.2h1.93v8.16Z"/><path class="cls-1" d="M188.61,22.54h-1.94V14.38h1.89v1.09A2.71,2.71,0,0,1,191,14.14c2,0,3,1.44,3,3.24v5.16h-2V17.71a1.58,1.58,0,0,0-1.33-1.8,1.36,1.36,0,0,0-.35,0,1.7,1.7,0,0,0-1.7,1.72,1.48,1.48,0,0,0,0,.21Z"/><path class="cls-1" d="M200.58,17.83,204,22.54h-2.38l-2.4-3.36-1,1.05v2.32h-1.92V10.41h1.92v7.27l3.14-3.3h2.58Z"/><path class="cls-1" d="M109,7.13,117.45,12v9.69l-8.39,4.86-8.41-4.82V12L109,7.13M109,0,106,1.79l-8.4,4.87L94.47,8.45V25.26L97.55,27,106,31.86l3.09,1.78,3.08-1.79L120.52,27l3.08-1.78V8.38L120.52,6.6l-8.41-4.83L109,0Z"/></g></g></svg>